<?xml version="1.0" encoding="iso-8859-1"?>
<!-- Uploaded to: SVG Repo, www.svgrepo.com, Generator: SVG Repo Mixer Tools -->
<svg version="1.1" id="Layer_1" xmlns="http://www.w3.org/2000/svg" xmlns:xlink="http://www.w3.org/1999/xlink" 
	 viewBox="0 0 505 505" xml:space="preserve">
<circle style="fill:#FD8469;" cx="252.5" cy="252.5" r="252.5"/>
<rect x="119.4" y="174.3" style="fill:#ACB3BA;" width="268.8" height="176.8"/>
<g>
	<path style="fill:#FFFFFF;" d="M395.2,103.5H109.8c-7,0-12.7,5.7-12.7,12.7v60.2c0,7,5.7,12.7,12.7,12.7h285.3
		c7,0,12.7-5.7,12.7-12.7v-60.2C407.9,109.2,402.2,103.5,395.2,103.5z"/>
	<path style="fill:#FFFFFF;" d="M395.2,209.7H109.8c-7,0-12.7,5.7-12.7,12.7v60.2c0,7,5.7,12.7,12.7,12.7h285.3
		c7,0,12.7-5.7,12.7-12.7v-60.2C407.9,215.4,402.2,209.7,395.2,209.7z"/>
	<path style="fill:#FFFFFF;" d="M395.2,315.9H109.8c-7,0-12.7,5.7-12.7,12.7v60.2c0,7,5.7,12.7,12.7,12.7h285.3
		c7,0,12.7-5.7,12.7-12.7v-60.2C407.9,321.6,402.2,315.9,395.2,315.9z"/>
</g>
<path style="fill:#324A5E;" d="M344,338.6h-19.7v-42.4c0-13.6-11-24.6-24.6-24.6s-24.6,11-24.6,24.6v42.4h-19.7v-42.4
	c0-24.5,19.9-44.3,44.3-44.3c24.5,0,44.3,19.9,44.3,44.3L344,338.6L344,338.6z"/>
<path style="fill:#FFD05B;" d="M352,327.3H247.3c-4.5,0-8.2,3.6-8.2,7.9v90.9c0,4.4,3.7,7.9,8.2,7.9h104.8c4.5,0,8.2-3.6,8.2-7.9
	v-90.9C360.2,330.9,356.6,327.3,352,327.3z"/>
<path style="fill:#324A5E;" d="M309.4,370.5c0-5.4-4.4-9.7-9.7-9.7c-5.4,0-9.7,4.4-9.7,9.7c0,3.3,1.7,6,4.2,7.8l-2.5,22.3h16.2
	l-2.5-22.3C307.7,376.5,309.4,373.8,309.4,370.5z"/>
<circle style="fill:#4CDBC4;" cx="130.7" cy="144.6" r="14.5"/>
<circle style="fill:#84DBFF;" cx="177.3" cy="144.6" r="14.5"/>
<circle style="fill:#4CDBC4;" cx="130.7" cy="252.5" r="14.5"/>
<circle style="fill:#84DBFF;" cx="177.3" cy="252.5" r="14.5"/>
<circle style="fill:#4CDBC4;" cx="130.7" cy="360.4" r="14.5"/>
<circle style="fill:#84DBFF;" cx="177.3" cy="360.4" r="14.5"/>
</svg>