<?xml version="1.0" encoding="iso-8859-1"?>
<!-- Uploaded to: SVG Repo, www.svgrepo.com, Generator: SVG Repo Mixer Tools -->
<svg version="1.1" id="Layer_1" xmlns="http://www.w3.org/2000/svg" xmlns:xlink="http://www.w3.org/1999/xlink" 
	 viewBox="0 0 505 505" xml:space="preserve">
<circle style="fill:#90DFAA;" cx="252.5" cy="252.5" r="252.5"/>
<rect x="117.2" y="176.9" style="fill:#324A5E;" width="259.7" height="170.8"/>
<g>
	<path style="fill:#FFFFFF;" d="M383.6,108.6H108c-6.8,0-12.3,5.5-12.3,12.3V179c0,6.8,5.5,12.3,12.3,12.3h275.6
		c6.8,0,12.3-5.5,12.3-12.3v-58.1C395.8,114.1,390.3,108.6,383.6,108.6z"/>
	<path style="fill:#FFFFFF;" d="M383.6,211.2H108c-6.8,0-12.3,5.5-12.3,12.3v58.1c0,6.8,5.5,12.3,12.3,12.3h275.6
		c6.8,0,12.3-5.5,12.3-12.3v-58.1C395.8,216.7,390.3,211.2,383.6,211.2z"/>
	<path style="fill:#FFFFFF;" d="M383.6,313.8H108c-6.8,0-12.3,5.5-12.3,12.3v58.1c0,6.8,5.5,12.3,12.3,12.3h275.6
		c6.8,0,12.3-5.5,12.3-12.3v-58.1C395.8,319.2,390.3,313.8,383.6,313.8z"/>
</g>
<circle style="fill:#FF7058;" cx="128.1" cy="148.3" r="14"/>
<circle style="fill:#FFD05B;" cx="173.2" cy="148.3" r="14"/>
<circle style="fill:#FF7058;" cx="128.1" cy="252.5" r="14"/>
<circle style="fill:#FFD05B;" cx="173.2" cy="252.5" r="14"/>
<circle style="fill:#FF7058;" cx="128.1" cy="356.7" r="14"/>
<circle style="fill:#FFD05B;" cx="173.2" cy="356.7" r="14"/>
</svg>